<?xml version="1.0" encoding="UTF-8" standalone="no"?>
<!-- Created with Inkscape (http://www.inkscape.org/) -->

<svg
   width="280mm"
   height="90mm"
   viewBox="0 0 280 90"
   version="1.1"
   id="svg830"
   inkscape:version="1.1.1 (3bf5ae0d25, 2021-09-20)"
   sodipodi:docname="logo2.svg"
   inkscape:export-filename="D:\athene\src\images\logo2-64h.png"
   inkscape:export-xdpi="18.062223"
   inkscape:export-ydpi="18.062223"
   xmlns:inkscape="http://www.inkscape.org/namespaces/inkscape"
   xmlns:sodipodi="http://sodipodi.sourceforge.net/DTD/sodipodi-0.dtd"
   xmlns="http://www.w3.org/2000/svg"
   xmlns:svg="http://www.w3.org/2000/svg"
   xmlns:rdf="http://www.w3.org/1999/02/22-rdf-syntax-ns#"
   xmlns:cc="http://creativecommons.org/ns#"
   xmlns:dc="http://purl.org/dc/elements/1.1/">
  <defs
     id="defs824" />
  <sodipodi:namedview
     id="base"
     pagecolor="#ffffff"
     bordercolor="#666666"
     borderopacity="1.0"
     inkscape:pageopacity="0.0"
     inkscape:pageshadow="2"
     inkscape:zoom="0.35"
     inkscape:cx="-224.28571"
     inkscape:cy="558.57143"
     inkscape:document-units="mm"
     inkscape:current-layer="text4520"
     showgrid="false"
     inkscape:window-width="2560"
     inkscape:window-height="1017"
     inkscape:window-x="1912"
     inkscape:window-y="-8"
     inkscape:window-maximized="1"
     inkscape:pagecheckerboard="0" />
  <metadata
     id="metadata827">
    <rdf:RDF>
      <cc:Work
         rdf:about="">
        <dc:format>image/svg+xml</dc:format>
        <dc:type
           rdf:resource="http://purl.org/dc/dcmitype/StillImage" />
      </cc:Work>
    </rdf:RDF>
  </metadata>
  <g
     inkscape:label="Ebene 1"
     inkscape:groupmode="layer"
     id="layer1"
     transform="translate(0,-207)">
    <rect
       style="fill:#fda100;fill-opacity:1;stroke-width:4.10055208;stroke-linejoin:round;stroke-miterlimit:4;stroke-dasharray:none"
       id="rect1383"
       width="280"
       height="90"
       x="0"
       y="207" />
    <g
       aria-label="mydraft.cc"
       transform="scale(0.99830578,1.0016971)"
       id="text4520"
       style="font-weight:600;font-size:52.7485px;line-height:1.25;font-family:Nunito;-inkscape-font-specification:'Nunito Semi-Bold';letter-spacing:0px;word-spacing:0px;fill:#ffffff;stroke-width:1.31871">
      <path
         d="m 52.177573,249.35801 q 0,-0.79844 -0.05151,-1.49386 -0.05151,-0.69541 -0.180292,-1.21053 -0.283318,-1.13327 -1.107513,-1.82869 -0.824195,-0.69541 -2.318049,-0.72117 -0.798439,0 -1.648391,0.23181 -0.849951,0.2318 -1.699903,0.66965 -0.824195,0.4121 -1.596878,1.03025 -0.746927,0.59239 -1.365074,1.33932 v 17.17932 h -6.104196 v -15.1961 q 0,-0.79844 -0.05151,-1.49386 -0.05151,-0.69541 -0.180292,-1.21053 -0.283317,-1.13327 -1.107513,-1.82869 -0.798439,-0.69541 -2.318049,-0.72117 -0.798439,0 -1.648391,0.23181 -0.849951,0.2318 -1.699903,0.66965 -0.824195,0.4121 -1.596878,1.03025 -0.746927,0.59239 -1.365074,1.33932 v 17.17932 h -6.104196 v -24.95767 h 5.048196 l 0.566634,3.47708 h 0.103025 q 0.540878,-0.77269 1.365073,-1.51961 0.824196,-0.74693 1.85444,-1.31356 1.056,-0.56664 2.292293,-0.90147 1.262049,-0.36058 2.652879,-0.36058 2.472586,0 4.43005,1.10751 1.98322,1.08176 3.013464,3.3998 h 0.103024 q 0.721171,-1.00448 1.596879,-1.82868 0.901463,-0.82419 1.98322,-1.41658 1.081756,-0.59239 2.318049,-0.92722 1.262049,-0.33483 2.678635,-0.33483 2.678635,0.0258 4.481562,1.13327 1.828683,1.08175 2.807415,2.9877 0.257561,0.48937 0.437854,1.08176 0.180293,0.56663 0.283317,1.2878 0.128781,0.72118 0.180293,1.59688 0.05151,0.87571 0.05151,2.00898 v 15.47942 h -6.104196 z"
         style="font-weight:bold;font-family:Corbel;-inkscape-font-specification:'Corbel Bold'"
         id="path10" />
      <path
         d="m 61.887623,239.59644 h 6.542051 l 3.734635,9.0404 q 2.112,5.15122 2.987708,7.6238 h 0.103024 q 0.643903,-1.93171 2.730147,-7.16019 l 3.863416,-9.50401 h 6.619318 L 72.396114,276.5307 h -6.026929 l 5.717855,-13.36742 z"
         style="font-weight:bold;font-family:Corbel;-inkscape-font-specification:'Corbel Bold'"
         id="path12" />
      <path
         d="m 102.81408,260.33011 q 0.90146,0 1.6999,-0.23181 0.82419,-0.2318 1.54536,-0.61814 0.72118,-0.38635 1.26205,-0.84996 0.56664,-0.46361 0.95298,-0.90146 v -11.84781 q -1.08176,-0.87571 -2.42107,-1.44234 -1.33932,-0.59239 -2.83318,-0.59239 -0.95297,0 -2.00897,0.38634 -1.030246,0.38634 -1.905953,1.31356 -0.849952,0.92722 -1.442342,2.57561 -0.566634,1.64839 -0.566634,4.19825 0,3.76039 1.442341,5.87239 1.468098,2.112 4.275518,2.13776 z m -12.028105,-7.75259 q 0,-3.27103 0.901464,-5.82088 0.901463,-2.57561 2.44683,-4.30127 1.571122,-1.75141 3.580098,-2.60137 2.008976,-0.8757 4.172493,-0.8757 1.00448,0 1.90595,0.18029 0.90146,0.18029 1.6999,0.48937 0.79844,0.30907 1.49385,0.69541 0.69542,0.38634 1.28781,0.79844 h 0.0515 q -0.0258,-0.51512 -0.0515,-1.44234 0,-0.95298 0,-2.06049 v -10.37971 h 6.1042 v 29.87708 q 0,2.47259 0.0515,4.24976 0.0515,1.77717 0.10302,3.168 h -5.5118 l -0.25756,-2.65288 h -0.10303 q -0.54088,0.6439 -1.31356,1.26205 -0.74693,0.61814 -1.67415,1.08175 -0.90146,0.43786 -2.00897,0.69542 -1.08176,0.25756 -2.36956,0.25756 -2.034737,0 -3.914932,-0.72117 -1.85444,-0.72117 -3.348294,-2.21503 -1.468098,-1.51961 -2.369561,-3.94068 -0.875708,-2.44683 -0.875708,-5.74361 z"
         style="font-weight:bold;font-family:Corbel;-inkscape-font-specification:'Corbel Bold'"
         id="path14" />
      <path
         d="m 136.32276,244.43859 h -0.51512 q -2.80741,0 -4.94517,0.84995 -2.112,0.8242 -3.27103,2.54986 v 16.71571 h -6.10419 v -24.95767 h 5.04819 l 0.56664,3.47708 h 0.10302 q 1.08176,-1.90595 2.96195,-2.98771 1.90596,-1.10751 4.55884,-1.10751 0.92721,0 1.59687,0.10302 z"
         style="font-weight:bold;font-family:Corbel;-inkscape-font-specification:'Corbel Bold'"
         id="path16" />
      <path
         d="m 154.6096,261.90123 h -0.10303 q -0.51512,0.54088 -1.23629,1.10751 -0.72117,0.56664 -1.64839,1.08176 -0.92722,0.48936 -2.06049,0.79844 -1.13327,0.30907 -2.44683,0.30907 -1.77717,0 -3.32254,-0.56663 -1.54536,-0.54088 -2.65288,-1.57113 -1.10751,-1.056 -1.75141,-2.52409 -0.61815,-1.49386 -0.61815,-3.32254 0,-2.00898 0.72117,-3.60586 0.74693,-1.59687 2.06049,-2.70439 1.31356,-1.10751 3.14224,-1.67414 1.82869,-0.59239 4.04371,-0.59239 1.62264,0 2.98771,0.20604 1.36507,0.20605 2.39532,0.48937 v -1.00449 q 0,-0.87571 -0.30907,-1.67414 -0.28332,-0.8242 -0.95298,-1.44235 -0.6439,-0.6439 -1.6999,-1.00448 -1.056,-0.38635 -2.57561,-0.38635 -1.85444,0 -3.70888,0.4121 -1.85444,0.4121 -4.01795,1.23629 v -4.76487 q 1.88019,-0.8242 3.99219,-1.26205 2.112,-0.43786 4.43005,-0.46361 2.73015,0 4.76488,0.66966 2.06049,0.66965 3.42556,1.85443 1.39083,1.15903 2.06049,2.75591 0.69542,1.59688 0.69542,3.47707 v 9.40098 q 0,2.47259 0.0515,4.24976 0.0515,1.77717 0.10302,3.168 h -5.5118 z m -0.48937,-7.98439 q -0.87571,-0.20605 -2.00898,-0.36059 -1.13327,-0.18029 -2.29229,-0.18029 -2.24078,0 -3.55434,0.90146 -1.28781,0.87571 -1.28781,2.70439 0,0.84995 0.28332,1.49386 0.30907,0.61814 0.79844,1.03024 0.51512,0.4121 1.18478,0.61815 0.66966,0.20605 1.41659,0.20605 0.92721,0 1.75141,-0.23181 0.8242,-0.25756 1.51961,-0.61814 0.69542,-0.38635 1.23629,-0.84996 0.56664,-0.46361 0.95298,-0.90146 z"
         style="font-weight:bold;font-family:Corbel;-inkscape-font-specification:'Corbel Bold'"
         id="path18" />
      <path
         d="m 182.70951,232.20444 q -1.00449,-0.25756 -2.08625,-0.4121 -1.056,-0.18029 -2.00898,-0.18029 -1.03024,0 -1.82868,0.25756 -0.79844,0.23181 -1.36507,0.79844 -0.54088,0.56664 -0.8242,1.4681 -0.28331,0.90146 -0.28331,2.18927 v 3.27102 h 6.92839 v 5.02244 h -6.92839 v 19.93523 h -6.1042 v -19.93523 h -4.224 v -5.02244 h 4.224 v -2.96195 q 0,-2.62712 0.72117,-4.50732 0.74693,-1.90595 2.06049,-3.11649 1.31356,-1.23629 3.09073,-1.80292 1.77717,-0.59239 3.86342,-0.59239 1.2878,0 2.54985,0.2318 1.28781,0.20605 2.21503,0.51512 z"
         style="font-weight:bold;font-family:Corbel;-inkscape-font-specification:'Corbel Bold'"
         id="path20" />
      <path
         d="m 199.63127,264.52835 q -1.03024,0.30907 -2.47259,0.48937 -1.41658,0.18029 -2.65288,0.18029 -3.14224,0 -5.15122,-1.00449 -1.98322,-1.03024 -2.80741,-2.93619 -0.59239,-1.36508 -0.59239,-3.70888 v -12.92957 h -4.66186 v -5.02244 h 4.66186 v -6.9799 h 6.10419 v 6.9799 h 7.21171 v 5.02244 h -7.21171 v 12.13113 q 0,1.44234 0.43786,2.13775 0.77268,1.18479 3.06497,1.18479 1.05601,0 2.08625,-0.15454 1.056,-0.18029 1.98322,-0.43785 z"
         style="font-weight:bold;font-family:Corbel;-inkscape-font-specification:'Corbel Bold'"
         id="path22" />
      <path
         d="m 205.2976,257.67723 h 6.92839 v 6.87688 h -6.92839 z"
         style="font-weight:bold;font-family:Corbel;-inkscape-font-specification:'Corbel Bold'"
         id="path24" />
      <path
         d="m 237.80182,264.01323 q -1.15903,0.48937 -2.83318,0.82419 -1.67414,0.36059 -3.52858,0.36059 -2.70439,0 -5.0482,-0.77268 -2.3438,-0.77269 -4.09522,-2.34381 -1.75141,-1.57112 -2.7559,-3.96644 -1.00449,-2.42107 -1.00449,-5.64059 0,-3.60585 1.15902,-6.18146 1.15903,-2.57561 2.98771,-4.17249 1.85444,-1.62263 4.14674,-2.36956 2.31804,-0.77268 4.55883,-0.77268 1.67414,0 3.21951,0.30907 1.54536,0.28332 2.80741,0.79844 v 4.97093 q -1.13326,-0.48937 -2.42107,-0.77269 -1.26205,-0.30907 -2.73015,-0.30907 -1.46809,0 -2.80741,0.46361 -1.33932,0.43785 -2.36956,1.41659 -1.03025,0.97873 -1.64839,2.60136 -0.59239,1.59688 -0.59239,3.86342 0,1.64839 0.46361,3.11649 0.4636,1.44234 1.33931,2.47258 0.90147,1.03025 2.26654,1.67415 1.39083,0.61815 3.27102,0.61815 1.67415,0 3.03923,-0.33483 1.36507,-0.33483 2.57561,-0.8242 z"
         style="font-weight:bold;font-family:Corbel;-inkscape-font-specification:'Corbel Bold'"
         id="path26" />
      <path
         d="m 260.28689,264.01323 q -1.15902,0.48937 -2.83317,0.82419 -1.67415,0.36059 -3.52859,0.36059 -2.70439,0 -5.04819,-0.77268 -2.34381,-0.77269 -4.09522,-2.34381 -1.75142,-1.57112 -2.75591,-3.96644 -1.00448,-2.42107 -1.00448,-5.64059 0,-3.60585 1.15902,-6.18146 1.15903,-2.57561 2.98771,-4.17249 1.85444,-1.62263 4.14673,-2.36956 2.31805,-0.77268 4.55883,-0.77268 1.67415,0 3.21952,0.30907 1.54536,0.28332 2.80741,0.79844 v 4.97093 q -1.13327,-0.48937 -2.42107,-0.77269 -1.26205,-0.30907 -2.73015,-0.30907 -1.4681,0 -2.80742,0.46361 -1.33931,0.43785 -2.36956,1.41659 -1.03024,0.97873 -1.64839,2.60136 -0.59239,1.59688 -0.59239,3.86342 0,1.64839 0.46361,3.11649 0.46361,1.44234 1.33932,2.47258 0.90146,1.03025 2.26654,1.67415 1.39083,0.61815 3.27102,0.61815 1.67415,0 3.03922,-0.33483 1.36508,-0.33483 2.57561,-0.8242 z"
         style="font-weight:bold;font-family:Corbel;-inkscape-font-specification:'Corbel Bold'"
         id="path28" />
    </g>
  </g>
</svg>
