<?xml version="1.0" encoding="UTF-8" standalone="no"?>
<!-- Created with Inkscape (http://www.inkscape.org/) -->

<svg
   width="179.37003mm"
   height="50mm"
   viewBox="0 0 179.37003 50"
   version="1.1"
   id="svg8"
   inkscape:version="1.1.1 (3bf5ae0d25, 2021-09-20)"
   sodipodi:docname="logo.svg"
   xmlns:inkscape="http://www.inkscape.org/namespaces/inkscape"
   xmlns:sodipodi="http://sodipodi.sourceforge.net/DTD/sodipodi-0.dtd"
   xmlns="http://www.w3.org/2000/svg"
   xmlns:svg="http://www.w3.org/2000/svg"
   xmlns:rdf="http://www.w3.org/1999/02/22-rdf-syntax-ns#"
   xmlns:cc="http://creativecommons.org/ns#"
   xmlns:dc="http://purl.org/dc/elements/1.1/">
  <defs
     id="defs2" />
  <sodipodi:namedview
     id="base"
     pagecolor="#ffffff"
     bordercolor="#666666"
     borderopacity="1.0"
     inkscape:pageopacity="0.0"
     inkscape:pageshadow="2"
     inkscape:zoom="0.7"
     inkscape:cx="337.85714"
     inkscape:cy="483.57143"
     inkscape:document-units="mm"
     inkscape:current-layer="layer1"
     showgrid="false"
     inkscape:window-width="2560"
     inkscape:window-height="1017"
     inkscape:window-x="1912"
     inkscape:window-y="-8"
     inkscape:window-maximized="1"
     fit-margin-top="0"
     fit-margin-left="0"
     fit-margin-right="0"
     fit-margin-bottom="0"
     inkscape:pagecheckerboard="0" />
  <metadata
     id="metadata5">
    <rdf:RDF>
      <cc:Work
         rdf:about="">
        <dc:format>image/svg+xml</dc:format>
        <dc:type
           rdf:resource="http://purl.org/dc/dcmitype/StillImage" />
      </cc:Work>
    </rdf:RDF>
  </metadata>
  <g
     inkscape:label="Ebene 1"
     inkscape:groupmode="layer"
     id="layer1"
     transform="translate(-1.6363507e-7,-247)">
    <g
       aria-label="mydraft"
       transform="scale(0.9983058,1.0016971)"
       id="text4520"
       style="font-weight:600;font-size:52.7485px;line-height:1.25;font-family:Nunito;-inkscape-font-specification:'Nunito Semi-Bold';letter-spacing:0px;word-spacing:0px;stroke-width:1.31871">
      <path
         d="m 32.143621,269.32413 q 0,-0.79844 -0.05151,-1.49385 -0.05151,-0.69542 -0.180292,-1.21054 -0.283318,-1.13327 -1.107513,-1.82868 -0.824195,-0.69542 -2.318049,-0.72117 -0.798439,0 -1.648391,0.2318 -0.849951,0.23181 -1.699903,0.66966 -0.824195,0.4121 -1.596878,1.03024 -0.746927,0.59239 -1.365074,1.33932 v 17.17932 h -6.104196 v -15.1961 q 0,-0.79844 -0.05151,-1.49385 -0.05151,-0.69542 -0.180292,-1.21054 -0.283317,-1.13327 -1.107513,-1.82868 -0.798439,-0.69542 -2.318049,-0.72117 -0.798439,0 -1.648391,0.2318 -0.8499512,0.23181 -1.6999026,0.66966 -0.8241953,0.4121 -1.5968784,1.03024 -0.746927,0.59239 -1.3650735,1.33932 v 17.17932 H 2.8274953e-6 V 259.56257 H 5.0481992 l 0.5666343,3.47707 h 0.1030244 q 0.5408782,-0.77268 1.3650735,-1.51961 0.8241953,-0.74692 1.8544395,-1.31356 1.0560002,-0.56663 2.2922931,-0.90146 1.262049,-0.36059 2.652879,-0.36059 2.472586,0 4.43005,1.10751 1.98322,1.08176 3.013464,3.39981 h 0.103024 q 0.721171,-1.00449 1.596879,-1.82868 0.901463,-0.8242 1.98322,-1.41659 1.081756,-0.59239 2.318049,-0.92722 1.262049,-0.33483 2.678635,-0.33483 2.678635,0.0258 4.481562,1.13327 1.828683,1.08176 2.807415,2.98771 0.257561,0.48936 0.437854,1.08175 0.180293,0.56664 0.283317,1.28781 0.128781,0.72117 0.180293,1.59688 0.05151,0.87571 0.05151,2.00897 v 15.47942 h -6.104196 z"
         style="font-weight:bold;font-family:Corbel;-inkscape-font-specification:'Corbel Bold';fill:#fda100"
         id="path108" />
      <path
         d="m 41.853671,259.56257 h 6.542051 l 3.734635,9.04039 q 2.112,5.15122 2.987708,7.62381 h 0.103024 q 0.643903,-1.93171 2.730147,-7.1602 l 3.863416,-9.504 h 6.619318 l -16.071808,36.93425 h -6.026929 l 5.717855,-13.36742 z"
         style="font-weight:bold;font-family:Corbel;-inkscape-font-specification:'Corbel Bold';fill:#fda100"
         id="path110" />
      <path
         d="m 82.780124,280.29623 q 0.901463,0 1.699902,-0.2318 0.824196,-0.23181 1.545367,-0.61815 0.721171,-0.38634 1.262049,-0.84995 0.566634,-0.46361 0.952976,-0.90146 v -11.84781 q -1.081757,-0.87571 -2.421074,-1.44234 -1.339318,-0.59239 -2.833172,-0.59239 -0.952975,0 -2.008976,0.38634 -1.030244,0.38634 -1.905951,1.31356 -0.849952,0.92722 -1.442342,2.57561 -0.566634,1.64839 -0.566634,4.19824 0,3.76039 1.442341,5.8724 1.468098,2.112 4.275514,2.13775 z m -12.028101,-7.75259 q 0,-3.27102 0.901464,-5.82087 0.901463,-2.57562 2.44683,-4.30127 1.571122,-1.75142 3.580098,-2.60137 2.008976,-0.87571 4.172489,-0.87571 1.004488,0 1.905952,0.18029 0.901463,0.1803 1.699902,0.48937 0.79844,0.30907 1.493854,0.69542 0.695415,0.38634 1.287806,0.79843 h 0.05151 q -0.02576,-0.51512 -0.05151,-1.44234 0,-0.95297 0,-2.06049 v -10.37971 h 6.104196 v 29.87709 q 0,2.47258 0.05151,4.24975 0.05151,1.77717 0.103025,3.168 h -5.511806 l -0.257561,-2.65288 h -0.103025 q -0.540878,0.64391 -1.313561,1.26205 -0.746927,0.61815 -1.674147,1.08176 -0.901464,0.43785 -2.008976,0.69541 -1.081756,0.25757 -2.369562,0.25757 -2.034732,0 -3.914927,-0.72118 -1.85444,-0.72117 -3.348294,-2.21502 -1.468098,-1.51961 -2.369561,-3.94068 -0.875708,-2.44683 -0.875708,-5.74362 z"
         style="font-weight:bold;font-family:Corbel;-inkscape-font-specification:'Corbel Bold';fill:#fda100"
         id="path112" />
      <path
         d="m 116.28881,264.40472 h -0.51512 q -2.80742,0 -4.94517,0.84995 -2.112,0.82419 -3.27103,2.54985 v 16.71571 h -6.10419 v -24.95766 h 5.04819 l 0.56664,3.47707 h 0.10302 q 1.08176,-1.90595 2.96195,-2.98771 1.90595,-1.10751 4.55883,-1.10751 0.92722,0 1.59688,0.10303 z"
         style="font-weight:bold;font-family:Corbel;-inkscape-font-specification:'Corbel Bold';fill:#fda100"
         id="path114" />
      <path
         d="m 134.57564,281.86735 h -0.10302 q -0.51512,0.54088 -1.23629,1.10752 -0.72118,0.56663 -1.6484,1.08175 -0.92721,0.48937 -2.06048,0.79844 -1.13327,0.30908 -2.44683,0.30908 -1.77717,0 -3.32254,-0.56664 -1.54537,-0.54088 -2.65288,-1.57112 -1.10751,-1.056 -1.75141,-2.5241 -0.61815,-1.49385 -0.61815,-3.32254 0,-2.00897 0.72117,-3.60585 0.74693,-1.59688 2.06049,-2.70439 1.31356,-1.10751 3.14224,-1.67415 1.82869,-0.59239 4.04371,-0.59239 1.62264,0 2.98771,0.20605 1.36507,0.20605 2.39532,0.48937 v -1.00449 q 0,-0.87571 -0.30908,-1.67415 -0.28331,-0.82419 -0.95297,-1.44234 -0.6439,-0.6439 -1.6999,-1.00449 -1.05601,-0.38634 -2.57562,-0.38634 -1.85443,0 -3.70887,0.4121 -1.85444,0.41209 -4.01796,1.23629 v -4.76488 q 1.8802,-0.82419 3.9922,-1.26205 2.112,-0.43785 4.43005,-0.46361 2.73015,0 4.76488,0.66966 2.06049,0.66966 3.42556,1.85444 1.39083,1.15902 2.06049,2.7559 0.69541,1.59688 0.69541,3.47708 v 9.40098 q 0,2.47258 0.0515,4.24975 0.0515,1.77717 0.10302,3.168 h -5.51181 z m -0.48936,-7.98439 q -0.87571,-0.20605 -2.00898,-0.36058 -1.13327,-0.1803 -2.29229,-0.1803 -2.24078,0 -3.55434,0.90147 -1.28781,0.87571 -1.28781,2.70439 0,0.84995 0.28332,1.49385 0.30907,0.61815 0.79844,1.03025 0.51512,0.41209 1.18478,0.61814 0.66966,0.20605 1.41658,0.20605 0.92722,0 1.75142,-0.2318 0.82419,-0.25756 1.51961,-0.61815 0.69541,-0.38634 1.23629,-0.84995 0.56664,-0.46361 0.95298,-0.90146 z"
         style="font-weight:bold;font-family:Corbel;-inkscape-font-specification:'Corbel Bold';fill:#fda100"
         id="path116" />
      <path
         d="m 162.67555,252.17057 q -1.00448,-0.25756 -2.08624,-0.4121 -1.056,-0.18029 -2.00898,-0.18029 -1.03024,0 -1.82868,0.25756 -0.79844,0.2318 -1.36507,0.79844 -0.54088,0.56663 -0.8242,1.46809 -0.28332,0.90147 -0.28332,2.18927 v 3.27103 h 6.9284 v 5.02244 h -6.9284 v 19.93522 h -6.10419 v -19.93522 h -4.224 v -5.02244 h 4.224 v -2.96195 q 0,-2.62713 0.72117,-4.50732 0.74692,-1.90595 2.06049,-3.11649 1.31356,-1.23629 3.09073,-1.80293 1.77717,-0.59239 3.86341,-0.59239 1.28781,0 2.54986,0.23181 1.2878,0.20605 2.21502,0.51512 z"
         style="font-weight:bold;font-family:Corbel;-inkscape-font-specification:'Corbel Bold';fill:#fda100"
         id="path118" />
      <path
         d="m 179.59732,284.49448 q -1.03025,0.30907 -2.47259,0.48936 -1.41658,0.1803 -2.65288,0.1803 -3.14224,0 -5.15122,-1.00449 -1.98322,-1.03025 -2.80741,-2.9362 -0.59239,-1.36507 -0.59239,-3.70888 v -12.92956 h -4.66186 v -5.02244 h 4.66186 v -6.97991 h 6.10419 v 6.97991 h 7.21171 v 5.02244 h -7.21171 v 12.13112 q 0,1.44235 0.43786,2.13776 0.77268,1.18478 3.06497,1.18478 1.056,0 2.08625,-0.15454 1.056,-0.18029 1.98322,-0.43785 z"
         style="font-weight:bold;font-family:Corbel;-inkscape-font-specification:'Corbel Bold';fill:#fda100"
         id="path120" />
    </g>
  </g>
</svg>
