<?xml version="1.0" encoding="UTF-8" standalone="no"?>
<!-- Created with Inkscape (http://www.inkscape.org/) -->

<svg
   xmlns:dc="http://purl.org/dc/elements/1.1/"
   xmlns:cc="http://creativecommons.org/ns#"
   xmlns:rdf="http://www.w3.org/1999/02/22-rdf-syntax-ns#"
   xmlns:svg="http://www.w3.org/2000/svg"
   xmlns="http://www.w3.org/2000/svg"
   xmlns:sodipodi="http://sodipodi.sourceforge.net/DTD/sodipodi-0.dtd"
   xmlns:inkscape="http://www.inkscape.org/namespaces/inkscape"
   width="64"
   height="64"
   viewBox="0 0 64.000001 64.000001"
   id="svg4807"
   version="1.1"
   inkscape:version="0.91 r13725"
   sodipodi:docname="bring-to-front.svg">
  <defs
     id="defs4809" />
  <sodipodi:namedview
     id="base"
     pagecolor="#ffffff"
     bordercolor="#666666"
     borderopacity="1.0"
     inkscape:pageopacity="0.0"
     inkscape:pageshadow="2"
     inkscape:zoom="3.959798"
     inkscape:cx="69.456775"
     inkscape:cy="38.888961"
     inkscape:document-units="px"
     inkscape:current-layer="layer1"
     showgrid="false"
     units="px"
     inkscape:window-width="1536"
     inkscape:window-height="801"
     inkscape:window-x="-8"
     inkscape:window-y="-8"
     inkscape:window-maximized="1" />
  <metadata
     id="metadata4812">
    <rdf:RDF>
      <cc:Work
         rdf:about="">
        <dc:format>image/svg+xml</dc:format>
        <dc:type
           rdf:resource="http://purl.org/dc/dcmitype/StillImage" />
        <dc:title></dc:title>
      </cc:Work>
    </rdf:RDF>
  </metadata>
  <g
     inkscape:label="Layer 1"
     inkscape:groupmode="layer"
     id="layer1"
     transform="translate(0,-988.36216)">
    <path
       style=""
       d="M 0 0 L 0 8 L 0 22 L 0 30 L 14 30 L 14 22 L 8 22 L 8 8 L 22 8 L 22 14 L 30 14 L 30 8 L 30 0 L 22 0 L 8 0 L 0 0 z "
       transform="translate(0,988.36216)"
       id="rect4815" />
    <rect
       style=""
       id="rect4823"
       width="28"
       height="28"
       x="18"
       y="1006.3622" />
    <path
       inkscape:connector-curvature="0"
       style=""
       d="m 64,1052.3622 0,-8 0,-14 0,-8 -14,0 0,8 6,0 0,14 -14,0 0,-6 -8,0 0,6 0,8 8,0 14,0 8,0 z"
       id="rect4815-4" />
  </g>
</svg>
