<?xml version="1.0" encoding="UTF-8" standalone="no"?>
<!-- Created with Inkscape (http://www.inkscape.org/) -->

<svg
   xmlns:dc="http://purl.org/dc/elements/1.1/"
   xmlns:cc="http://creativecommons.org/ns#"
   xmlns:rdf="http://www.w3.org/1999/02/22-rdf-syntax-ns#"
   xmlns:svg="http://www.w3.org/2000/svg"
   xmlns="http://www.w3.org/2000/svg"
   xmlns:sodipodi="http://sodipodi.sourceforge.net/DTD/sodipodi-0.dtd"
   xmlns:inkscape="http://www.inkscape.org/namespaces/inkscape"
   width="64"
   height="64"
   viewBox="0 0 64.000001 64.000001"
   id="svg2"
   version="1.1"
   inkscape:version="0.91 r13725"
   sodipodi:docname="distribute-h.svg">
  <defs
     id="defs4" />
  <sodipodi:namedview
     id="base"
     pagecolor="#ffffff"
     bordercolor="#666666"
     borderopacity="1.0"
     inkscape:pageopacity="0.0"
     inkscape:pageshadow="2"
     inkscape:zoom="1.979899"
     inkscape:cx="106.20323"
     inkscape:cy="7.4044252"
     inkscape:document-units="px"
     inkscape:current-layer="layer1"
     showgrid="false"
     units="px"
     inkscape:window-width="1536"
     inkscape:window-height="801"
     inkscape:window-x="-8"
     inkscape:window-y="-8"
     inkscape:window-maximized="1" />
  <metadata
     id="metadata7">
    <rdf:RDF>
      <cc:Work
         rdf:about="">
        <dc:format>image/svg+xml</dc:format>
        <dc:type
           rdf:resource="http://purl.org/dc/dcmitype/StillImage" />
        <dc:title></dc:title>
      </cc:Work>
    </rdf:RDF>
  </metadata>
  <g
     inkscape:label="Layer 1"
     inkscape:groupmode="layer"
     id="layer1"
     transform="translate(0,-988.36216)">
    <path
       style="fill-opacity:1;stroke:none;stroke-width:6.87900019;stroke-miterlimit:4;stroke-dasharray:none;"
       d="M 0 0 L 0 44 L 12 44 L 12 0 L 0 0 z M 4 4.3007812 L 8 4.3007812 L 8 40 L 4 40 L 4 4.3007812 z "
       transform="translate(0,988.36216)"
       id="rect3344" />
    <path
       style="fill-opacity:1;stroke:none;stroke-width:6.87900019;stroke-miterlimit:4;stroke-dasharray:none;"
       d="M 52 8 L 52 64 L 64 64 L 64 8 L 52 8 z M 56 12 L 60 12 L 60 60 L 56 60 L 56 12 z "
       transform="translate(0,988.36216)"
       id="rect3344-9" />
    <path
       style="fill-opacity:1;stroke:none;stroke-width:6.87900019;stroke-miterlimit:4;stroke-dasharray:none;"
       d="M 26 16 L 26 56 L 38 56 L 38 16 L 26 16 z M 30 19.960938 L 34 19.960938 L 34 52 L 30 52 L 30 19.960938 z "
       transform="translate(0,988.36216)"
       id="rect3344-9-6" />
    <rect
       style="fill-opacity:1;stroke:none;stroke-width:6.87900019;stroke-miterlimit:4;stroke-dasharray:none;"
       id="rect3344-9-6-3"
       width="6"
       height="12"
       x="42"
       y="1012.2371" />
    <rect
       style="fill-opacity:1;stroke:none;stroke-width:6.87900019;stroke-miterlimit:4;stroke-dasharray:none;"
       id="rect3344-9-6-3-3"
       width="6"
       height="12"
       x="16"
       y="1012.2371" />
  </g>
</svg>
