<?xml version="1.0" encoding="UTF-8" standalone="no"?>
<!-- Created with Inkscape (http://www.inkscape.org/) -->

<svg
   xmlns:dc="http://purl.org/dc/elements/1.1/"
   xmlns:cc="http://creativecommons.org/ns#"
   xmlns:rdf="http://www.w3.org/1999/02/22-rdf-syntax-ns#"
   xmlns:svg="http://www.w3.org/2000/svg"
   xmlns="http://www.w3.org/2000/svg"
   xmlns:sodipodi="http://sodipodi.sourceforge.net/DTD/sodipodi-0.dtd"
   xmlns:inkscape="http://www.inkscape.org/namespaces/inkscape"
   width="64"
   height="64"
   viewBox="0 0 64.000001 64.000001"
   id="svg2"
   version="1.1"
   inkscape:version="0.91 r13725"
   sodipodi:docname="distribute-v.svg">
  <defs
     id="defs4" />
  <sodipodi:namedview
     id="base"
     pagecolor="#ffffff"
     bordercolor="#666666"
     borderopacity="1.0"
     inkscape:pageopacity="0.0"
     inkscape:pageshadow="2"
     inkscape:zoom="1.979899"
     inkscape:cx="106.20323"
     inkscape:cy="7.4044252"
     inkscape:document-units="px"
     inkscape:current-layer="layer1"
     showgrid="false"
     units="px"
     inkscape:window-width="1536"
     inkscape:window-height="801"
     inkscape:window-x="-8"
     inkscape:window-y="-8"
     inkscape:window-maximized="1" />
  <metadata
     id="metadata7">
    <rdf:RDF>
      <cc:Work
         rdf:about="">
        <dc:format>image/svg+xml</dc:format>
        <dc:type
           rdf:resource="http://purl.org/dc/dcmitype/StillImage" />
        <dc:title />
      </cc:Work>
    </rdf:RDF>
  </metadata>
  <g
     inkscape:label="Layer 1"
     inkscape:groupmode="layer"
     id="layer1"
     transform="translate(0,-988.36216)">
    <g
       id="g3338"
       transform="matrix(0,1,-1,0,1052.3622,988.36216)">
      <path
         id="rect3344"
         transform="translate(0,988.36216)"
         d="M 0,0 0,44 12,44 12,0 0,0 Z m 4,4.3007812 4,0 L 8,40 4,40 4,4.3007812 Z"
         style="fill-opacity:1;stroke:none;stroke-width:6.87900019;stroke-miterlimit:4;stroke-dasharray:none"
         inkscape:connector-curvature="0" />
      <path
         id="rect3344-9"
         transform="translate(0,988.36216)"
         d="m 52,8 0,56 12,0 0,-56 -12,0 z m 4,4 4,0 0,48 -4,0 0,-48 z"
         style="fill-opacity:1;stroke:none;stroke-width:6.87900019;stroke-miterlimit:4;stroke-dasharray:none"
         inkscape:connector-curvature="0" />
      <path
         id="rect3344-9-6"
         transform="translate(0,988.36216)"
         d="m 26,16 0,40 12,0 0,-40 -12,0 z m 4,3.960938 4,0 L 34,52 30,52 30,19.960938 Z"
         style="fill-opacity:1;stroke:none;stroke-width:6.87900019;stroke-miterlimit:4;stroke-dasharray:none"
         inkscape:connector-curvature="0" />
      <rect
         y="1012.2371"
         x="42"
         height="12"
         width="6"
         id="rect3344-9-6-3"
         style="fill-opacity:1;stroke:none;stroke-width:6.87900019;stroke-miterlimit:4;stroke-dasharray:none" />
      <rect
         y="1012.2371"
         x="16"
         height="12"
         width="6"
         id="rect3344-9-6-3-3"
         style="fill-opacity:1;stroke:none;stroke-width:6.87900019;stroke-miterlimit:4;stroke-dasharray:none" />
    </g>
  </g>
</svg>
